<svg id="Ebene_1" data-name="Ebene 1" xmlns="http://www.w3.org/2000/svg" viewBox="0 0 380 380"><g class="cls-1"><path class="cls-2" d="M95.55,145.93a55.14,55.14,0,0,0-2.23,7,61.21,61.21,0,0,0,.41,30,86.12,86.12,0,0,0,15.74,31.2,120.11,120.11,0,0,0,28.77,26.46,141,141,0,0,0,35.93,17.08,134.08,134.08,0,0,0,38.6,6.28,104,104,0,0,0,36.76-5.92c11.19-4.07,20.53-10,27.77-17.57a56.46,56.46,0,0,0,11.86-18.44l-4.71,12a56.43,56.43,0,0,1-11.87,18.44C265.35,260.1,256,266,244.81,270.08A103.73,103.73,0,0,1,208.06,276a133.74,133.74,0,0,1-38.6-6.28,140.9,140.9,0,0,1-35.94-17.08,119.88,119.88,0,0,1-28.76-26.46c-7.72-10-13-20.5-15.74-31.2a61.09,61.09,0,0,1-.41-30,54.57,54.57,0,0,1,2.23-7Z"/></g><path class="cls-2" d="M135.19,109.92A103.77,103.77,0,0,1,171.94,104a134,134,0,0,1,38.6,6.28,141.06,141.06,0,0,1,35.94,17.08,120.11,120.11,0,0,1,28.77,26.46c7.71,10,13,20.5,15.73,31.2a61.09,61.09,0,0,1,.41,30,55.87,55.87,0,0,1-14.09,25.46c-7.24,7.59-16.58,13.5-27.77,17.57A104,104,0,0,1,212.77,264a134.08,134.08,0,0,1-38.6-6.28,141,141,0,0,1-35.93-17.08,120.11,120.11,0,0,1-28.77-26.46A86.12,86.12,0,0,1,93.73,183a61.21,61.21,0,0,1-.41-30,55.92,55.92,0,0,1,14.1-25.47C114.66,119.9,124,114,135.19,109.92Z"/><path d="M138.44,201.55a20.87,20.87,0,0,1-8.78,6,19.14,19.14,0,0,1-5.4,1.19l.51,1.7a20.86,20.86,0,0,0,6.12-1.3c.69-.25,1.42-.56,2.17-.92l-.7-.55,1.53-1.18s.35.29,1,.76a22,22,0,0,0,5.44-4.6l-1.85-1.15"/><path d="M241.51,164l.35,1.7a39.19,39.19,0,0,0,8.52-.5c-.22-.61-.36-.94-.37-1l2.28-.21.27.7c.88-.23,1.68-.48,2.4-.74a15.08,15.08,0,0,0,5-2.74L258.19,160a14.11,14.11,0,0,1-4.46,2.4,31.45,31.45,0,0,1-12.22,1.6"/><path d="M250,164.28s.15.35.37,1a100.32,100.32,0,0,1,5.94,29.48c.29,9.35-1.24,17.43-4.56,24-4.12,8.19-11,14.1-20.53,17.56s-20.5,4.07-32.69,1.81A124.55,124.55,0,0,1,167,227.22a196.27,196.27,0,0,1-32.19-19.92c-.61-.47-.94-.74-1-.76l-1.53,1.18.7.55a199.06,199.06,0,0,0,33,20.49,127.85,127.85,0,0,0,32.4,11.2c12.71,2.36,24.19,1.72,34.12-1.89s17.15-9.78,21.44-18.33c3.42-6.8,5-15.11,4.69-24.7a102.36,102.36,0,0,0-6.16-30.27l-.27-.7-2.28.21"/><path d="M136.93,146.78l0,0c-3.61,1.46,3.41,15.51,15.66,31.38s25,27.47,28.66,26.13l0,0c3.6-1.45-3.42-15.5-15.67-31.38s-25-27.46-28.66-26.13"/><path d="M176.46,132.4l-.05,0c-3.6,1.45,3.41,15.5,15.67,31.38s25,27.46,28.65,26.13l.05,0c3.6-1.45-3.42-15.51-15.67-31.38s-25-27.47-28.65-26.13"/></svg>